<?xml version="1.0" encoding="UTF-8"?> <svg xmlns="http://www.w3.org/2000/svg" xmlns:xlink="http://www.w3.org/1999/xlink" id="Componente_8_13" data-name="Componente 8 – 13" width="576" height="437" viewBox="0 0 576 437"><defs><clipPath id="clip-path"><rect id="Rectángulo_1135" data-name="Rectángulo 1135" width="576" height="437" transform="translate(0 5295)" fill="#fff" stroke="#707070" stroke-width="1"></rect></clipPath><clipPath id="clip-path-2"><rect id="Rectángulo_1130" data-name="Rectángulo 1130" width="751.125" height="773.175" fill="none"></rect></clipPath></defs><g id="Enmascarar_grupo_692" data-name="Enmascarar grupo 692" transform="translate(0 -5295)" clip-path="url(#clip-path)"><g id="Grupo_1234" data-name="Grupo 1234" transform="translate(-45.145 5331.497)"><g id="Grupo_1233" data-name="Grupo 1233" transform="translate(0 0.004)" clip-path="url(#clip-path-2)"><path id="Trazado_7011" data-name="Trazado 7011" d="M104.359,12.446C98.843,4.624,86.119.517,78.827,9.156L15.665,83.994C2.249,99.89,25.135,123,38.654,106.983Q63.714,77.292,88.774,47.6a377.838,377.838,0,0,1,31.109,60.718c5.094,12.735,21.763,16.54,29.712,3.883a411.248,411.248,0,0,1,48.08-62.191l10.169,66.941c1.916,12.621,19.237,14.9,27.17,7.174l82.94-80.81c15.012-14.627-7.987-37.607-22.989-22.989L234.742,79Q229.619,45.283,224.5,11.564c-1.953-12.859-19.114-14.593-27.17-7.173a444.47,444.47,0,0,0-58.937,66.42,409.1,409.1,0,0,0-34.032-58.365" transform="translate(-4.619 -0.004)" fill="#212887"></path><path id="Trazado_7012" data-name="Trazado 7012" d="M253.539,569.937c-.739-18.672-3.885-38.5-14.17-54.5-22.944-35.688-70.259-33.7-99-6.175-33.3,31.9-28.9,81.991-27.682,123.847.638,21.933,1.174,48.931-13.24,67.184-11.912,15.085-31.078,14.548-39.157-3.4-9.911-22.017-.792-48.423-2.967-71.577-2.131-22.68-11.678-45.386-32.761-56.392C6.039,559.252-10.417,587.3,8.156,597c17.451,9.111,17.621,31.1,16.783,48.341-1.082,22.211-3.3,44.066,5.955,64.983,18.16,41.036,68.966,43.261,95.07,8.457,28.62-38.157,16.252-88.506,18.3-132.434.884-18.956,4.705-40.451,19.1-54.09,10.713-10.155,29.22-16.907,42.185-6.828,14.642,11.385,15.364,34.919,15.655,51.689.428,24.586.733,49.119,13.313,71.043,10.411,18.143,38.514,1.787,28.073-16.41-10.754-18.741-8.227-41.035-9.049-61.811" transform="translate(0 -194.702)" fill="#61cdb4"></path><path id="Trazado_7013" data-name="Trazado 7013" d="M565.413,336.587c-5.083,29.6-18.534,57.055-48.009,70.1-8.091,3.582-9.824,15.228-5.832,22.241,4.738,8.326,14.26,9.364,22.242,5.832,39.6-17.526,58.2-56.975,64.312-97.683a140.147,140.147,0,0,0,36.809-8.546c53.408-20.587,88.864-71.246,91.818-128.177,1.085-20.91-31.43-20.852-32.512,0-1.768,34.081-19.9,67.6-48.593,86.528A111.786,111.786,0,0,1,600.537,303.8c-.079-25.425-3.269-53.189-18.078-74.643-13.21-19.139-35.184-32.493-58.965-31.716a52.93,52.93,0,0,0-49.539,38.972c-6.892,24.291,2.188,49.8,19.668,67.231,18.925,18.874,44.829,29.612,71.789,32.948m-46.068-106c13.764-3.505,28.56,5.271,36.042,16.425,10.384,15.48,12.3,35.1,12.609,53.249.022,1.271,0,2.56,0,3.841a106.934,106.934,0,0,1-26.844-7.4c-14.925-6.344-30.56-17.372-35.607-33.524-3.829-12.253-.144-29.044,13.8-32.6" transform="translate(-187.935 -73.598)" fill="#f85d59"></path><path id="Trazado_7014" data-name="Trazado 7014" d="M180.625,272.947c-38.976-10.976-80.362-.642-111.653,24.18-6.883,5.46-5.707,17.283,0,22.989,6.8,6.8,16.088,5.475,22.989,0,22.763-18.056,54.73-23.6,82.342-15.137,26.632,8.165,47.135,28.73,57.858,54.066,3.422,8.087,15.358,9.858,22.242,5.832,8.373-4.9,9.267-14.122,5.831-22.241-14.2-33.563-44.579-59.824-79.61-69.689" transform="translate(-25.598 -107.024)" fill="#7779c2"></path><path id="Trazado_7015" data-name="Trazado 7015" d="M802.9,549.275a85.051,85.051,0,0,1-4.144-7.462c-.2-.415-.857-1.817-1.008-2.092-.466-1.142-.9-2.3-1.3-3.467a81.894,81.894,0,0,1-2.382-8.187c-.325-1.386-.582-2.782-.87-4.175-.109-.528-.173-.808-.22-1,0-.148-.021-.546-.112-1.444-.89-8.734-6.835-16.256-16.256-16.256-8.1,0-17.151,7.467-16.256,16.256,3.11,30.549,18.727,57.887,44.364,75.123,25.62,17.227,60.654,20.7,89.3,9.455,8.167-3.206,13.855-10.894,11.353-20-2.139-7.785-11.779-14.579-20-11.354-12.194,4.787-20.548,5.659-33.321,5.051-8.942-.426-20.883-4.783-29.494-10.292A66.852,66.852,0,0,1,802.9,549.275" transform="translate(-302.95 -201.305)" fill="#7779c2"></path><path id="Trazado_7016" data-name="Trazado 7016" d="M722.255,772.441c-16.688,13.291-55.6,26.83-58.323-6.528-2.12-25.993,9.465-50.572-1.476-76.019-8.9-20.691-29.248-33.881-51-37.73C548.4,641,510.505,697.811,492.727,749.979c-6.764,19.848,24.628,28.369,31.351,8.643,12.237-35.905,39.106-85.969,85.124-73.745,20.017,5.317,27.129,19.84,25.838,39.594-1.444,22.08-8.176,44.643,2.1,65.718,9.9,20.308,32.227,30.726,54.25,29.571,25.13-1.317,46.237-16.727,64-33.263,20.158-18.766,44.377-50.186,72.571-66.04V686.911a144.142,144.142,0,0,0-41.176,23.481c-23.2,18.879-41.142,43.424-64.526,62.049" transform="translate(-195.958 -259.305)" fill="#212887"></path><path id="Trazado_7017" data-name="Trazado 7017" d="M1153.83,734.61c-25.422-37.714-66.191-41.891-103.18-28.392v33.545c16.1-9.052,33.479-13.075,52.169-6.651,21.415,7.361,35.434,32.4,34.977,54.374-.593,28.54-12.04,57.855-23.538,83.54-8.477,18.937,19.531,35.493,28.073,16.41,21.04-47,43.393-105.508,11.5-152.825" transform="translate(-418.652 -278.612)" fill="#212887"></path></g></g></g></svg> 