<?xml version="1.0" encoding="UTF-8"?> <svg xmlns="http://www.w3.org/2000/svg" xmlns:xlink="http://www.w3.org/1999/xlink" id="Grupo_1204" data-name="Grupo 1204" width="133.934" height="141.355" viewBox="0 0 133.934 141.355"><defs><clipPath id="clip-path"><rect id="Rectángulo_1118" data-name="Rectángulo 1118" width="133.934" height="141.355" fill="none"></rect></clipPath></defs><g id="Grupo_1203" data-name="Grupo 1203" clip-path="url(#clip-path)"><path id="Trazado_6989" data-name="Trazado 6989" d="M49.225,85.209c-2.668,16.607-9.73,32.007-25.2,39.325-4.248,2.009-5.157,8.542-3.062,12.477,2.487,4.671,7.486,5.253,11.676,3.272,20.786-9.832,30.555-31.962,33.76-54.8A69.644,69.644,0,0,0,85.72,80.691c28.037-11.549,46.65-39.968,48.2-71.9.57-11.73-16.5-11.7-17.067,0-.928,19.119-10.445,37.924-25.509,48.54a56.43,56.43,0,0,1-23.68,9.487c-.042-14.263-1.717-29.838-9.491-41.873C51.239,14.2,39.7,6.712,27.22,7.148,14.871,7.579,4.582,16.324,1.214,29.01-2.4,42.637,2.363,56.946,11.539,66.726c9.934,10.588,23.533,16.612,37.686,18.483M25.041,25.745c7.225-1.966,14.993,2.957,18.92,9.214,5.451,8.684,6.456,19.69,6.619,29.872.011.713,0,1.436,0,2.155A53.369,53.369,0,0,1,36.49,62.837C28.655,59.278,20.448,53.091,17.8,44.031c-2.01-6.874-.076-16.294,7.243-18.285" transform="translate(0 0)" fill="#7779c2"></path></g></svg> 