<?xml version="1.0" encoding="UTF-8"?> <svg xmlns="http://www.w3.org/2000/svg" xmlns:xlink="http://www.w3.org/1999/xlink" width="718" height="786" viewBox="0 0 718 786"><defs><clipPath id="clip-path"><rect id="Rect치ngulo_1216" data-name="Rect치ngulo 1216" width="718" height="786" transform="translate(-23942 110)" fill="#fff" stroke="#707070" stroke-width="1"></rect></clipPath><clipPath id="clip-path-2"><rect id="Rect치ngulo_1121" data-name="Rect치ngulo 1121" width="589.9" height="706.013" transform="matrix(1, -0.017, 0.017, 1, -6.116, 133.06)" fill="none"></rect></clipPath></defs><g id="Enmascarar_grupo_713" data-name="Enmascarar grupo 713" transform="translate(23942 -110)" clip-path="url(#clip-path)"><g id="Grupo_1512" data-name="Grupo 1512" transform="translate(-24083.639 749.782) rotate(-89)"><g id="Grupo_1211" data-name="Grupo 1211" clip-path="url(#clip-path-2)"><path id="Trazado_6993" data-name="Trazado 6993" d="M85.144,490.59c-4.329-6.14-14.316-9.363-20.039-2.583l-49.576,58.74C5,559.223,22.962,577.362,33.573,564.791l39.338-46.609a296.56,296.56,0,0,1,24.417,47.657c4,10,17.081,12.982,23.321,3.048a322.781,322.781,0,0,1,37.738-48.813l7.981,52.542c1.5,9.906,15.1,11.7,21.325,5.631l65.1-63.427c11.783-11.48-6.269-29.517-18.044-18.044L187.48,542.828q-4.02-26.466-8.04-52.931c-1.533-10.093-15-11.454-21.325-5.63A348.858,348.858,0,0,0,111.855,536.4a321.1,321.1,0,0,0-26.712-45.81" transform="matrix(-0.438, -0.899, 0.899, -0.438, 46.423, 773.014)" fill="#212887"></path><path id="Trazado_6994" data-name="Trazado 6994" d="M199.739,1033.265c-.58-14.655-3.05-30.218-11.122-42.775-18.008-28.011-55.145-26.452-77.7-4.846C84.778,1010.682,88.233,1050,89.188,1082.85c.5,17.215.921,38.405-10.392,52.732-9.349,11.84-24.393,11.419-30.734-2.669-7.779-17.281-.621-38.006-2.329-56.18-1.672-17.8-9.166-35.623-25.713-44.262-14.542-7.593-27.458,14.422-12.88,22.034,13.7,7.151,13.831,24.413,13.173,37.942-.849,17.433-2.592,34.587,4.674,51,14.253,32.209,54.13,33.956,74.62,6.638,22.463-29.949,12.756-69.468,14.366-103.946.694-14.878,3.693-31.75,14.988-42.455,8.409-7.97,22.934-13.27,33.11-5.359,11.492,8.936,12.059,27.408,12.288,40.57.336,19.3.575,38.553,10.449,55.761,8.171,14.24,30.229,1.4,22.034-12.88-8.441-14.71-6.457-32.208-7.1-48.515" transform="translate(-0.39 -511.733)" fill="#61cdb4"></path><path id="Trazado_6995" data-name="Trazado 6995" d="M545.981,784.734c-3.99,23.237-14.547,44.782-37.682,55.022-6.351,2.811-7.71,11.952-4.578,17.457,3.719,6.535,11.193,7.35,17.457,4.577,31.079-13.756,45.684-44.719,50.477-76.67a110,110,0,0,0,28.891-6.708c41.919-16.158,69.748-55.92,72.067-100.605.852-16.412-24.669-16.367-25.518,0-1.388,26.75-15.618,53.062-38.141,67.915A87.739,87.739,0,0,1,573.55,759c-.062-19.956-2.566-41.748-14.189-58.586-10.369-15.022-27.615-25.5-46.281-24.894A41.545,41.545,0,0,0,474.2,706.1c-5.409,19.066,1.718,39.086,15.438,52.769,14.854,14.814,35.186,23.242,56.346,25.861m-36.159-83.2c10.8-2.751,22.417,4.137,28.289,12.892,8.15,12.15,9.652,27.549,9.9,41.795.018,1,0,2.009,0,3.015a83.938,83.938,0,0,1-21.07-5.8c-11.714-4.98-23.986-13.635-27.948-26.313-3.005-9.617-.113-22.8,10.829-25.584" transform="translate(-249.354 -351.302)" fill="#f85d59"></path><path id="Trazado_6996" data-name="Trazado 6996" d="M9.351,331.917c23.683,6.517,50.006,3.248,70.956-9.8a90.778,90.778,0,0,0,39.3-53.037A12.762,12.762,0,1,0,95,262.3c-4.171,15.39-14.053,29.351-27.572,37.786a64.178,64.178,0,0,1-51.293,7.228,12.762,12.762,0,1,0-6.784,24.607" transform="translate(159.573 20.989)" fill="#7779c2"></path><path id="Trazado_6997" data-name="Trazado 6997" d="M156.33,752.828c-30.592-8.615-63.075-.5-87.635,18.979-5.4,4.286-4.479,13.565,0,18.044,5.337,5.337,12.627,4.3,18.044,0,17.866-14.172,42.957-18.525,64.63-11.881,20.9,6.409,37,22.55,45.412,42.436,2.686,6.347,12.054,7.738,17.457,4.577,6.572-3.844,7.274-11.084,4.577-17.457-11.148-26.343-34.99-46.955-62.485-54.7" transform="translate(686.108 -132.106) rotate(56)" fill="#f56763"></path><path id="Trazado_6998" data-name="Trazado 6998" d="M794.469,1020.612a66.748,66.748,0,0,1-3.253-5.857c-.16-.326-.673-1.426-.791-1.642-.365-.9-.7-1.809-1.023-2.721a64.3,64.3,0,0,1-1.87-6.426c-.255-1.088-.456-2.184-.683-3.277-.085-.414-.136-.635-.173-.786,0-.116-.017-.429-.088-1.133-.7-6.855-5.364-12.759-12.759-12.759-6.358,0-13.461,5.861-12.759,12.759,2.441,23.978,14.7,45.434,34.82,58.964s47.607,16.246,70.088,7.422c6.41-2.516,10.875-8.55,8.911-15.7-1.679-6.11-9.245-11.443-15.7-8.911-9.571,3.757-16.128,4.442-26.154,3.965-7.018-.334-16.391-3.755-23.149-8.078a52.472,52.472,0,0,1-15.424-15.822" transform="matrix(0.883, 0.469, -0.469, 0.883, 266.47, -680.215)" fill="#7779c2"></path><path id="Trazado_6999" data-name="Trazado 6999" d="M483.052,112.558c-.1,29.972,22.171,54.795,53.162,52.169,16.7-1.415,31.2-9.422,44.783-18.715,15.543-10.633,30.914-21.525,46.363-32.293,10.982-7.655,28.511-23.247,43.094-16.629,10.8,4.9,9.83,20.386,5.511,29.433-6.659,13.95-21.263,23.11-33.215,32.072a375.049,375.049,0,0,0-38.866,33.2c-20.23,20-46.2,50.913-26.906,80.385,15.471,23.627,48.994,22.967,71.169,10.286,12.574-7.19,22.885-17.6,34.691-25.869,8.021-5.622,29.46-17.991,36.356-4.11,3.535,7.114-2.211,17.741-4.245,24.672-2.6,8.856-5.081,19.283-4.671,28.59.728,16.5,12.284,31.25,28.695,34.382,16.048,3.062,22.922-21.527,6.784-24.606-16.276-3.106-8.464-24.211-5.159-34.913,4.3-13.935,8.279-29.166-.135-42.486C725.145,213.876,692.539,219.5,672.23,233c-17.86,11.871-36.247,35.856-60.08,32.63-13.919-1.884-19.107-13.478-13.886-26.264,5.591-13.693,18.474-24.723,28.98-34.672,21.476-20.338,50.738-35.114,67.5-59.875,13.758-20.322,14.081-52.764-7.848-67.744-27.83-19.013-58.31,4.775-80.819,20.463-14.091,9.821-28,19.992-42.361,29.411-11.9,7.808-28.875,17.6-43.182,10.023-11.556-6.122-13.79-22.192-10.735-33.707,4.41-16.626,17.48-29.473,29.658-40.863,20.567-19.239,30.051-27.666,47.323-39.172a12.732,12.732,0,0,0-.731-21.657,11.909,11.909,0,0,0-12.78.6,507.61,507.61,0,0,0-40.553,31.96c-23.141,20.3-49.556,45.2-49.667,78.422" transform="translate(-290.045 415.371)" fill="#61cdb4"></path><path id="Trazado_7003" data-name="Trazado 7003" d="M483.052,112.558c-.1,29.972,22.171,54.795,53.162,52.169,16.7-1.415,31.2-9.422,44.783-18.715,15.543-10.633,30.914-21.525,46.363-32.293,10.982-7.655,28.511-23.247,43.094-16.629,10.8,4.9,9.83,20.386,5.511,29.433-6.659,13.95-21.263,23.11-33.215,32.072a375.049,375.049,0,0,0-38.866,33.2c-20.23,20-46.2,50.913-26.906,80.385,15.471,23.627,48.994,22.967,71.169,10.286,12.574-7.19,22.885-17.6,34.691-25.869,8.021-5.622,29.46-17.991,36.356-4.11,3.535,7.114-2.211,17.741-4.245,24.672-2.6,8.856-5.081,19.283-4.671,28.59.728,16.5,12.284,31.25,28.695,34.382,16.048,3.062,22.922-21.527,6.784-24.606-16.276-3.106-8.464-24.211-5.159-34.913,4.3-13.935,8.279-29.166-.135-42.486C725.145,213.876,692.539,219.5,672.23,233c-17.86,11.871-36.247,35.856-60.08,32.63-13.919-1.884-19.107-13.478-13.886-26.264,5.591-13.693,18.474-24.723,28.98-34.672,21.476-20.338,50.738-35.114,67.5-59.875,13.758-20.322,14.081-52.764-7.848-67.744-27.83-19.013-58.31,4.775-80.819,20.463-14.091,9.821-28,19.992-42.361,29.411-11.9,7.808-28.875,17.6-43.182,10.023-11.556-6.122-13.79-22.192-10.735-33.707,4.41-16.626,17.48-29.473,29.658-40.863,20.567-19.239,30.051-27.666,47.323-39.172a12.732,12.732,0,0,0-.731-21.657,11.909,11.909,0,0,0-12.78.6,507.61,507.61,0,0,0-40.553,31.96c-23.141,20.3-49.556,45.2-49.667,78.422" transform="translate(20.778 804.938) rotate(-90)" fill="#61cdb4"></path><path id="Trazado_7002" data-name="Trazado 7002" d="M314.716,1466.492c-3.99,23.237-14.547,44.782-37.682,55.022-6.351,2.811-7.711,11.952-4.578,17.457,3.719,6.535,11.193,7.35,17.457,4.577,31.079-13.756,45.684-44.719,50.477-76.67a109.993,109.993,0,0,0,28.891-6.708c41.919-16.158,69.748-55.92,72.067-100.6.852-16.413-24.669-16.366-25.518,0-1.388,26.75-15.618,53.062-38.141,67.915a87.741,87.741,0,0,1-35.405,13.274c-.062-19.956-2.566-41.748-14.189-58.587-10.369-15.022-27.615-25.5-46.281-24.894a41.545,41.545,0,0,0-38.882,30.589c-5.409,19.066,1.718,39.086,15.437,52.768,14.854,14.814,35.186,23.242,56.346,25.861m-36.158-83.2c10.8-2.751,22.416,4.137,28.289,12.892,8.15,12.15,9.652,27.549,9.9,41.794.017,1,0,2.01,0,3.015a83.928,83.928,0,0,1-21.07-5.8c-11.714-4.979-23.986-13.635-27.948-26.312-3.005-9.617-.113-22.8,10.829-25.584" transform="translate(-127.277 -711.177)" fill="#f85d59"></path></g></g></g></svg> 