<?xml version="1.0" encoding="UTF-8"?> <svg xmlns="http://www.w3.org/2000/svg" xmlns:xlink="http://www.w3.org/1999/xlink" width="390" height="398" viewBox="0 0 390 398"><defs><clipPath id="clip-path"><rect id="Rectángulo_1208" data-name="Rectángulo 1208" width="390" height="398" transform="translate(0 5352)" fill="#fff" stroke="#707070" stroke-width="1"></rect></clipPath><clipPath id="clip-path-2"><rect id="Rectángulo_1207" data-name="Rectángulo 1207" width="488.607" height="502.951" fill="none"></rect></clipPath></defs><g id="Enmascarar_grupo_710" data-name="Enmascarar grupo 710" transform="translate(0 -5352)" clip-path="url(#clip-path)"><g id="Grupo_1493" data-name="Grupo 1493" transform="translate(-45.145 5380.497)"><g id="Grupo_1492" data-name="Grupo 1492" transform="translate(0 0.004)" clip-path="url(#clip-path-2)"><path id="Trazado_7123" data-name="Trazado 7123" d="M71.937,8.1C68.349,3.009,60.072.337,55.329,5.957L14.241,54.64C5.514,64.98,20.4,80.013,29.2,69.594L61.8,30.965a245.784,245.784,0,0,1,20.236,39.5c3.313,8.284,14.157,10.759,19.328,2.526a267.517,267.517,0,0,1,31.276-40.455l6.615,43.545c1.247,8.21,12.514,9.694,17.674,4.667l53.953-52.567c9.766-9.515-5.2-24.463-14.954-14.955L156.751,51.392q-3.332-21.934-6.664-43.868c-1.271-8.365-12.433-9.493-17.674-4.666A289.128,289.128,0,0,0,94.075,46.064,266.122,266.122,0,0,0,71.937,8.1" transform="translate(-7.056 -0.004)" fill="#212887"></path><path id="Trazado_7124" data-name="Trazado 7124" d="M164.927,541.517c-.481-12.146-2.527-25.044-9.218-35.451-14.925-23.215-45.7-21.923-64.4-4.017-21.663,20.751-18.8,53.335-18.007,80.562.415,14.267.763,31.83-8.612,43.7-7.748,9.813-20.216,9.464-25.472-2.212-6.447-14.322-.515-31.5-1.93-46.561-1.386-14.753-7.6-29.523-21.311-36.683C3.928,534.566-6.777,552.812,5.306,559.12c11.352,5.927,11.463,20.233,10.917,31.446-.7,14.448-2.148,28.665,3.873,42.271,11.813,26.694,44.862,28.142,61.843,5.5,18.617-24.821,10.572-57.573,11.906-86.149.575-12.331,3.061-26.313,12.422-35.186,6.969-6.606,19.008-11,27.441-4.442,9.525,7.406,9.994,22.715,10.184,33.624.278,15.993.477,31.952,8.66,46.214,6.772,11.8,25.053,1.162,18.261-10.675-7-12.191-5.352-26.693-5.887-40.208" transform="translate(0 -297.426)" fill="#61cdb4"></path><path id="Trazado_7125" data-name="Trazado 7125" d="M532.64,283.5c-3.306,19.258-12.057,37.114-31.23,45.6-5.263,2.33-6.39,9.906-3.794,14.468,3.082,5.416,9.276,6.091,14.468,3.794,25.758-11.4,37.862-37.062,41.835-63.543a91.167,91.167,0,0,0,23.944-5.559c34.742-13.392,57.806-46.346,59.727-83.379.706-13.6-20.445-13.564-21.149,0-1.15,22.17-12.944,43.977-31.61,56.287a72.717,72.717,0,0,1-29.343,11c-.051-16.539-2.127-34.6-11.76-48.555-8.593-12.45-22.887-21.137-38.357-20.632a34.431,34.431,0,0,0-32.225,25.351c-4.483,15.8,1.424,32.393,12.794,43.734,12.311,12.278,29.161,19.263,46.7,21.433m-29.967-68.953c8.953-2.28,18.578,3.429,23.445,10.684,6.754,10.07,8,22.832,8.2,34.639.014.827,0,1.665,0,2.5a69.562,69.562,0,0,1-17.462-4.811c-9.708-4.127-19.879-11.3-23.162-21.807-2.491-7.97-.094-18.893,8.975-21.2" transform="translate(-287.091 -112.426)" fill="#f85d59"></path><path id="Trazado_7126" data-name="Trazado 7126" d="M139.949,271.422c-25.354-7.14-52.276-.417-72.63,15.729-4.478,3.552-3.712,11.242,0,14.954,4.423,4.423,10.465,3.562,14.955,0,14.807-11.746,35.6-15.353,53.564-9.847,17.324,5.311,30.662,18.689,37.636,35.17,2.226,5.261,9.99,6.413,14.468,3.794,5.446-3.186,6.028-9.186,3.793-14.468-9.239-21.833-29-38.916-51.786-45.332" transform="translate(-39.104 -163.489)" fill="#7779c2"></path><path id="Trazado_7127" data-name="Trazado 7127" d="M788,533.868a55.312,55.312,0,0,1-2.7-4.854c-.133-.27-.558-1.182-.655-1.361-.3-.743-.584-1.5-.848-2.255a53.278,53.278,0,0,1-1.549-5.326c-.212-.9-.378-1.81-.566-2.716-.071-.343-.113-.526-.143-.651,0-.1-.014-.355-.073-.939-.579-5.682-4.446-10.574-10.574-10.574-5.27,0-11.157,4.858-10.574,10.574,2.023,19.872,12.182,37.655,28.859,48.868s39.456,13.464,58.087,6.151c5.313-2.086,9.013-7.086,7.385-13.008-1.391-5.064-7.662-9.484-13.008-7.386-7.932,3.114-13.366,3.681-21.675,3.286-5.817-.277-13.585-3.112-19.186-6.7A43.487,43.487,0,0,1,788,533.868" transform="translate(-462.788 -307.513)" fill="#7779c2"></path><path id="Trazado_7128" data-name="Trazado 7128" d="M641.7,729.909c-10.855,8.646-36.169,17.453-37.939-4.246-1.379-16.909,6.157-32.9-.96-49.451-5.787-13.459-19.026-22.039-33.177-24.544C528.61,644.41,503.96,681.362,492.4,715.3c-4.4,12.911,16.02,18.454,20.394,5.622,7.96-23.356,25.439-55.923,55.373-47.971,13.021,3.459,17.648,12.906,16.808,25.756-.939,14.363-5.319,29.04,1.365,42.75,6.44,13.21,20.964,19.987,35.29,19.236,16.347-.857,30.077-10.881,41.631-21.638,13.113-12.207,28.867-32.646,47.208-42.959V674.272a93.765,93.765,0,0,0-26.785,15.274c-15.09,12.281-26.763,28.247-41.974,40.363" transform="translate(-299.347 -396.113)" fill="#212887"></path><path id="Trazado_7129" data-name="Trazado 7129" d="M1117.769,722.234c-16.537-24.533-43.057-27.25-67.119-18.469v21.821c10.472-5.888,21.778-8.506,33.936-4.327,13.93,4.788,23.05,21.074,22.753,35.37-.385,18.565-7.832,37.635-15.311,54.343-5.514,12.319,12.7,23.088,18.261,10.675,13.686-30.574,28.227-68.633,7.48-99.413" transform="translate(-639.535 -425.606)" fill="#212887"></path><path id="Trazado_7130" data-name="Trazado 7130" d="M301.374,965.259c-3.306,19.258-12.057,37.115-31.23,45.6-5.263,2.33-6.39,9.906-3.794,14.468,3.082,5.416,9.276,6.091,14.468,3.794,25.757-11.4,37.862-37.062,41.835-63.542A91.166,91.166,0,0,0,346.6,960.02c34.742-13.392,57.806-46.346,59.727-83.379.706-13.6-20.445-13.564-21.149,0-1.15,22.17-12.944,43.976-31.61,56.287a72.715,72.715,0,0,1-29.343,11c-.051-16.539-2.127-34.6-11.76-48.555-8.593-12.45-22.887-21.137-38.357-20.632a34.432,34.432,0,0,0-32.225,25.351c-4.483,15.8,1.423,32.393,12.794,43.734,12.311,12.278,29.161,19.263,46.7,21.433m-29.967-68.953c8.953-2.28,18.578,3.429,23.445,10.684,6.755,10.07,8,22.832,8.2,34.638.014.827,0,1.666,0,2.5a69.561,69.561,0,0,1-17.462-4.811c-9.708-4.127-19.879-11.3-23.162-21.807-2.491-7.97-.094-18.893,8.975-21.2" transform="translate(-146.318 -527.414)" fill="#f85d59"></path></g></g><g id="Grupo_1495" data-name="Grupo 1495" transform="translate(20 5162)"><g id="Grupo_1494" data-name="Grupo 1494" transform="translate(0 0)"><path id="Trazado_7131" data-name="Trazado 7131" d="M66.289,63.019a30.058,30.058,0,0,1-26.465-15.7l6.4-3.472A22.8,22.8,0,0,0,89.045,33.212V29.567A19.351,19.351,0,0,1,57.692,14.422h7.282a12.037,12.037,0,0,0,23.915,1.955,12.217,12.217,0,0,0,.157-1.955h7.282v18.79A29.957,29.957,0,0,1,66.289,63.019" transform="translate(-14.81 -5.363)" fill="#212887"></path><path id="Trazado_7132" data-name="Trazado 7132" d="M148.023,20.819c.93,5.723,5.437,9.228,11.445,9.228A15.138,15.138,0,0,0,169.7,25.9l3.577,5.15a19.68,19.68,0,0,1-14.02,5.651c-10.729,0-18.884-7.94-18.884-18.312A18.107,18.107,0,0,1,158.538,0,15.8,15.8,0,0,1,174.776,16.1a22.382,22.382,0,0,1-.573,4.721Zm19.242-5.865c-.071-5.365-4.076-8.584-9.013-8.584s-8.941,3.362-10.086,8.584Z" transform="translate(-52.202 0)" fill="#212887"></path><path id="Trazado_7133" data-name="Trazado 7133" d="M18.531.371C28.759.156,37.414,8.74,37.2,18.682c.214,9.943-8.44,18.6-18.669,18.383C8.444,37.28-.21,28.625,0,18.682-.21,8.6,8.444.227,18.531.371M18.6,7.238c-6.223,0-10.945,5.007-10.945,11.516s4.721,11.374,10.874,11.374c6.223,0,10.943-5.007,10.943-11.374,0-6.51-4.792-11.516-10.872-11.516" transform="translate(0 -0.136)" fill="#212887"></path></g></g><text id="políticas_de_privacidad._aviso_legal_políticas_de_cookie" data-name="políticas de privacidad. aviso legal políticas de cookie" transform="translate(20 5273)" fill="#5a5a5a" font-size="13" font-family="DMSans-Regular, DM Sans"><tspan x="0" y="0" xml:space="preserve">políticas de privacidad. aviso legal políticas de cookie</tspan></text></g></svg> 